<?xml version="1.0" encoding="UTF-8"?>
<svg version="1.1" xmlns="http://www.w3.org/2000/svg" width="512" height="512">
<path d="M0 0 C2.86624771 2.44825325 4.61349969 4.24877735 5.44140625 8 C5.63413535 11.28261177 5.23989504 13.59866209 3.5546875 16.41796875 C0.01598314 19.99454915 -3.9933954 21.96041312 -8.4375 24.25 C-29.68724488 35.60051075 -50.77421168 50.56581061 -58.8125 74.41015625 C-61.72309449 85.87062207 -59.98132277 96.9522116 -54.1640625 107.25 C-52.2050409 110.25233195 -50.15941584 113.13909095 -48 116 C-47.51660156 116.65613281 -47.03320312 117.31226563 -46.53515625 117.98828125 C-42.15764742 123.50774891 -36.56093992 127.73733399 -31 132 C-29.61748047 133.06541016 -29.61748047 133.06541016 -28.20703125 134.15234375 C12.30187635 163.74471614 65.06746721 175.18960652 114 181 C114.7017334 181.0835675 115.4034668 181.16713501 116.12646484 181.25323486 C155.16126432 185.82346529 194.98308587 185.64641724 234 181 C235.07193604 180.87271515 235.07193604 180.87271515 236.16552734 180.74285889 C288.26283558 174.46675946 343.76870939 161.16718838 385 127 C385.92039062 126.30003906 385.92039062 126.30003906 386.859375 125.5859375 C397.13151308 117.5284347 406.19435095 104.14111252 408 91 C409.18416377 78.56628045 405.50815428 66.20670408 397.74462891 56.41699219 C385.95354141 42.38772371 371.91907394 32.60340488 356.0390625 23.80078125 C355.40274902 23.44516113 354.76643555 23.08954102 354.11083984 22.72314453 C352.35573259 21.74634514 350.59217233 20.78477877 348.828125 19.82421875 C346.09371207 18.06044687 344.60064176 16.80388281 343 14 C342.58740031 10.21783621 342.67482185 7.75304414 344.1875 4.25 C346.34869384 1.56713868 347.78457429 0.28617029 351 -1 C357.24970068 -0.68751497 361.6403095 0.91285072 367.0625 3.9375 C367.7956543 4.33791504 368.52880859 4.73833008 369.28417969 5.15087891 C381.90975986 12.16539232 393.27794116 20.33726339 404 30 C404.81082031 30.71542969 405.62164062 31.43085938 406.45703125 32.16796875 C419.15736722 44.02309847 429.56943596 61.48349187 430.3359375 79.1015625 C430.73082552 103.08183865 423.0839132 120.5073131 406.41381836 137.86767578 C364.28700905 180.77953348 297.49880529 195.828639 240 203 C238.85917969 203.15098145 237.71835937 203.30196289 236.54296875 203.45751953 C194.8540899 208.78353809 149.63927542 208.57693157 108 203 C106.63858951 202.82602983 105.27709603 202.65270812 103.91552734 202.47998047 C48.5518366 195.36764463 -11.65209561 180.30560443 -54 142 C-54.52658203 141.52546387 -55.05316406 141.05092773 -55.59570312 140.56201172 C-69.62160547 127.73969517 -81.36286184 110.51038571 -82.37109375 90.96875 C-82.87874392 68.57709605 -76.3259319 51.00973196 -60.78149414 34.70678711 C-49.67437645 23.46466004 -37.77949766 14.72793225 -24 7 C-23.26330078 6.58105469 -22.52660156 6.16210938 -21.76757812 5.73046875 C-19.65111899 4.54102249 -17.51922506 3.38849957 -15.375 2.25 C-14.74867676 1.90227539 -14.12235352 1.55455078 -13.47705078 1.19628906 C-8.46718171 -1.35346006 -5.31561014 -1.23139396 0 0 Z " fill="#000000" transform="translate(82,188)"/>
<path d="M0 0 C15.43800928 15.25328097 18.1122216 36.86161132 18.3125 57.53320312 C18.127716 75.94560908 14.52397704 94.91374972 1.47265625 108.6328125 C-9.42544775 118.926374 -20.56741111 120.87732673 -35.0703125 120.5703125 C-40.83496816 120.29199479 -45.61551004 118.97293195 -50.71484375 116.2578125 C-51.49988281 115.8453125 -52.28492188 115.4328125 -53.09375 115.0078125 C-64.55079263 108.18399015 -71.10533255 96.31974786 -74.71484375 83.78515625 C-80.2850048 60.46010684 -80.77678846 31.35282521 -67.859375 10.22265625 C-60.52049826 -0.32431747 -51.82056592 -7.54946669 -38.96484375 -10.1171875 C-24.44606585 -12.05550958 -11.2320285 -9.64779627 0 0 Z M-39.71484375 21.2578125 C-49.45511849 36.56395852 -46.70053504 62.26086296 -43.71484375 79.2578125 C-42.43012521 84.37900705 -40.93097243 87.94567366 -37.33984375 91.8203125 C-34.27092134 93.50091287 -32.22393241 94.18619845 -28.71484375 94.2578125 C-24.01783613 92.56688976 -21.33068217 90.49727476 -18.71484375 86.2578125 C-12.02022951 68.92354347 -11.7676263 43.79387659 -17.71484375 26.2578125 C-19.77752402 21.81203561 -21.61924398 18.98821235 -25.71484375 16.2578125 C-32.24824532 15.50807789 -35.04550654 16.26270758 -39.71484375 21.2578125 Z " fill="#000000" transform="translate(395.71484375,191.7421875)"/>
<path d="M0 0 C-1.69913463 5.12886936 -4.69363975 9.34174599 -7.6640625 13.80078125 C-8.49216934 15.0553437 -8.49216934 15.0553437 -9.33700562 16.33525085 C-11.09545399 18.99715063 -12.86012682 21.65485669 -14.625 24.3125 C-15.8207258 26.12016939 -17.01604305 27.92810909 -18.2109375 29.73632812 C-21.13589743 34.1606958 -24.06597422 38.58163986 -27 43 C-25.58098389 42.75878418 -25.58098389 42.75878418 -24.13330078 42.51269531 C-13.42410148 40.76037191 -3.17670571 42.45114638 5.875 48.625 C14.46208716 55.38083514 19.24550397 64.24012613 21 75 C21.90121988 89.85279694 19.73729885 101.96791173 10.51171875 113.9296875 C3.29087914 121.99265977 -7.87210439 127.37895664 -18.62963867 128.20092773 C-21.54779157 128.3038444 -24.45513266 128.32205454 -27.375 128.3125 C-28.84066406 128.33666992 -28.84066406 128.33666992 -30.3359375 128.36132812 C-43.30690543 128.36995244 -54.40177111 124.10007517 -63.890625 115.265625 C-72.39643283 106.12975733 -75.58514508 95.01484213 -75.4375 82.75 C-75.4228772 81.37376465 -75.4228772 81.37376465 -75.40795898 79.96972656 C-74.90164979 60.41074492 -64.46791499 44.02543976 -54.02978516 28.05566406 C-51.08595108 23.5447226 -48.58428261 19.21143195 -46.54296875 14.21875 C-37.51264433 -5.93307669 -19.09608185 -1.95610326 0 0 Z M-42.375 71.5 C-46.71317429 76.78932481 -46.64881421 82.40372215 -46 89 C-44.37008714 94.35036611 -41.75511513 97.95184927 -37 101 C-31.12159161 102.95946946 -24.42398374 102.79330377 -18.5625 100.875 C-13.10109375 96.87884909 -10.13484167 92.69556585 -9 86 C-8.91001688 79.66743821 -10.28694251 75.11799817 -14 70 C-23.02513544 63.00091538 -34.38252246 62.52032808 -42.375 71.5 Z " fill="#000000" transform="translate(284,184)"/>
<path d="M0 0 C7.07832324 6.72286159 9.61851 14.18227747 10.25 23.8125 C10.08360361 31.75414583 7.23668275 37.52922221 1.8515625 43.26953125 C-0.60789975 45.56814259 -3.09743828 47.30093948 -6 49 C-5.03900391 49.4021875 -5.03900391 49.4021875 -4.05859375 49.8125 C3.6734375 53.31553651 9.38152214 57.7644928 12.875 65.6875 C16.32571656 76.75135996 15.71686101 89.09127978 10.77734375 99.6015625 C4.46268974 109.83868961 -5.49100862 117.21376082 -17.140625 120.109375 C-32.74336344 123.37123781 -49.05882595 121.82998291 -62.875 113.8125 C-70.88823554 108.34203789 -75.88734457 101.10739922 -79 92 C-79.66 86.72 -80.32 81.44 -81 76 C-70.11 76 -59.22 76 -48 76 C-47.01 79.96 -46.02 83.92 -45 88 C-44.33467279 91.14509612 -44.33467279 91.14509612 -41.80859375 92.1640625 C-36.53405789 93.73395217 -30.16840723 94.22980242 -24.95703125 92.20703125 C-21.67135692 90.08959668 -19.39352507 87.66582418 -18.48046875 83.80078125 C-17.75031297 77.59932482 -18.15006773 73.60159102 -21 68 C-24.37333131 64.58622107 -28.18158098 64.2842282 -32.75 63.8125 C-35.1425 63.544375 -37.535 63.27625 -40 63 C-40 56.07 -40 49.14 -40 42 C-36.9371875 41.4121875 -36.9371875 41.4121875 -33.8125 40.8125 C-28.29067996 39.54470454 -25.25728831 38.65326902 -22 34 C-20.79356434 30.38069302 -20.67731441 27.80768995 -21 24 C-22.61320721 20.94642921 -24.03060902 18.76166434 -26.75 16.625 C-31.50718849 15.30355875 -35.5927876 15.59407335 -40.25 16.9375 C-44.08049754 19.46134791 -44.08049754 19.46134791 -47 28 C-57.23 28 -67.46 28 -78 28 C-78 16.62274793 -75.10667132 9.62338966 -67.4765625 1.34765625 C-50.95434387 -14.48949478 -17.18399609 -14.05664048 0 0 Z " fill="#000000" transform="translate(179,191)"/>
<path d="M0 0 C2.71928607 1.91670067 4.87854291 3.85815775 7.01171875 6.41796875 C7.45257813 6.93101562 7.8934375 7.4440625 8.34765625 7.97265625 C13.32775003 14.21936348 14.70428529 21.52271018 14.01171875 29.41796875 C12.20383772 38.65487349 8.33466821 45.29822552 0.63671875 50.79296875 C-6.52747925 55.2090908 -14.13905705 56.52988198 -22.43359375 54.953125 C-30.79414609 52.79267646 -36.59772384 48.98240395 -41.36328125 41.73046875 C-45.76068348 33.70460894 -46.82256161 25.90617061 -44.8046875 16.984375 C-42.18196513 8.73974055 -36.48374197 2.84655265 -29.22265625 -1.68359375 C-20.16850914 -5.89574045 -8.45387959 -4.98848763 0 0 Z M-20.80078125 18.98046875 C-23.44897037 21.93130805 -23.98828125 23.46835933 -23.98828125 27.41796875 C-22.2548325 31.14640839 -22.2548325 31.14640839 -18.98828125 33.41796875 C-14.93564527 33.95832021 -13.45097894 33.7599627 -10.11328125 31.29296875 C-7.7874599 28.58668208 -7.7874599 28.58668208 -7.42578125 25.35546875 C-8.1247281 21.70541296 -8.9703017 20.56232264 -11.98828125 18.41796875 C-15.80488715 17.11869866 -17.24617006 17.00568476 -20.80078125 18.98046875 Z " fill="#000000" transform="translate(426.98828125,121.58203125)"/>
</svg>
