<svg xmlns="http://www.w3.org/2000/svg" width="76.988" height="42.755" viewBox="0 0 76.988 42.755">
  <g id="mastercard" transform="translate(0.25 0.25)" opacity="0.9">
    <rect id="Rectangle_291" data-name="Rectangle 291" width="76.488" height="42.255" rx="2.75" transform="translate(0 0)" fill="#fff" stroke="#f1f1f1" stroke-width="0.5"/>
    <path id="Path_224" data-name="Path 224" d="M25.555,34.22V32.3a1.119,1.119,0,0,0-1.2-1.213,1.24,1.24,0,0,0-1.076.543,1.108,1.108,0,0,0-1.013-.543,1.016,1.016,0,0,0-.885.447v-.383h-.663V34.22h.663V32.526c0-.543.284-.8.726-.8s.663.287.663.8V34.22h.663V32.526a.7.7,0,0,1,.726-.8c.442,0,.663.287.663.8V34.22Zm9.84-3.067H34.319v-.927h-.663v.927h-.6v.607h.6v1.407c0,.7.284,1.117,1.043,1.117a1.77,1.77,0,0,0,.822-.223l-.192-.577a1.054,1.054,0,0,1-.571.16c-.317,0-.442-.194-.442-.51V31.76h1.076v-.607Zm5.632-.067a.9.9,0,0,0-.792.447v-.383h-.663v3.067h.663V32.489c0-.51.221-.8.634-.8a2.021,2.021,0,0,1,.413.063l.192-.64A2.6,2.6,0,0,0,41.027,31.086Zm-8.51.32a2.16,2.16,0,0,0-1.235-.32c-.759,0-1.264.383-1.264.99,0,.51.38.8,1.043.893l.317.033c.346.063.538.16.538.32,0,.223-.254.383-.7.383a1.737,1.737,0,0,1-1.013-.32l-.317.51a2.208,2.208,0,0,0,1.3.383c.885,0,1.393-.417,1.393-.99,0-.543-.413-.83-1.043-.927l-.317-.034c-.284-.033-.5-.1-.5-.287,0-.223.221-.35.571-.35a2.266,2.266,0,0,1,.951.257Zm17.65-.32a.9.9,0,0,0-.792.447v-.383h-.663v3.067h.663V32.489c0-.51.221-.8.634-.8a2.02,2.02,0,0,1,.413.063l.192-.633A2,2,0,0,0,50.167,31.086Zm-8.477,1.6a1.527,1.527,0,0,0,1.614,1.6,1.579,1.579,0,0,0,1.076-.35l-.317-.543a1.26,1.26,0,0,1-.792.287.9.9,0,0,1-.918-.99.936.936,0,0,1,.918-.99,1.289,1.289,0,0,1,.792.287l.317-.543a1.56,1.56,0,0,0-1.076-.35A1.525,1.525,0,0,0,41.69,32.687Zm6.136,0V31.153h-.663v.383a1.142,1.142,0,0,0-.951-.447,1.6,1.6,0,0,0,0,3.194,1.069,1.069,0,0,0,.951-.447v.383h.663Zm-2.436,0a.92.92,0,1,1,1.835,0,.92.92,0,1,1-1.835,0Zm-7.939-1.6a1.6,1.6,0,0,0,.033,3.194,1.916,1.916,0,0,0,1.235-.417l-.317-.48a1.5,1.5,0,0,1-.884.32.857.857,0,0,1-.918-.733h2.245v-.257A1.409,1.409,0,0,0,37.452,31.086Zm0,.577a.742.742,0,0,1,.759.733H36.63A.8.8,0,0,1,37.452,31.663Zm16.482,1.024V29.94h-.663v1.6a1.142,1.142,0,0,0-.951-.447,1.6,1.6,0,0,0,0,3.194,1.069,1.069,0,0,0,.951-.447v.383h.663Zm-2.436,0a.92.92,0,1,1,1.835,0,.92.92,0,1,1-1.835,0Zm-22.209,0V31.153h-.663v.383a1.142,1.142,0,0,0-.951-.447,1.6,1.6,0,0,0,0,3.194,1.069,1.069,0,0,0,.951-.447v.383h.663Zm-2.466,0a.92.92,0,1,1,1.835,0,.92.92,0,1,1-1.835,0Z" transform="translate(1.178 1.821)"/>
    <path id="Path_225" data-name="Path 225" d="M41.507,9.3H31.541V27.382h9.966Z" transform="translate(1.933 0.381)" fill="#ff5a00"/>
    <path id="Path_226" data-name="Path 226" d="M33.079,18.5A11.575,11.575,0,0,1,37.413,9.46,11.258,11.258,0,0,0,30.388,7a11.5,11.5,0,0,0,0,23,11.258,11.258,0,0,0,7.025-2.46A11.519,11.519,0,0,1,33.079,18.5Z" transform="translate(1.058 0.221)" fill="#eb001b"/>
    <path id="Path_227" data-name="Path 227" d="M54.626,18.5A11.438,11.438,0,0,1,43.237,30a11.257,11.257,0,0,1-7.025-2.46,11.6,11.6,0,0,0,0-18.082A11.239,11.239,0,0,1,43.234,7,11.461,11.461,0,0,1,54.626,18.5Z" transform="translate(2.259 0.221)" fill="#f79e1b"/>
  </g>
</svg>
