<svg xmlns="http://www.w3.org/2000/svg" width="76.988" height="42.755" viewBox="0 0 76.988 42.755">
  <g id="paypal" transform="translate(0.25 0.25)" opacity="0.9">
    <rect id="Rectangle_292" data-name="Rectangle 292" width="76.488" height="42.255" rx="2.75" transform="translate(0 0)" fill="#fff" stroke="#f1f1f1" stroke-width="0.5"/>
    <g id="Group_763" data-name="Group 763" transform="translate(21.127 6.151)">
      <path id="Path_228" data-name="Path 228" d="M24.174,25.651H21.468a.376.376,0,0,0-.371.317L20,32.905a.225.225,0,0,0,.223.26h1.292a.376.376,0,0,0,.371-.317l.3-1.871a.375.375,0,0,1,.371-.318h.856a2.779,2.779,0,0,0,3.079-2.571,2.084,2.084,0,0,0-.345-1.746A2.51,2.51,0,0,0,24.174,25.651Zm.312,2.534c-.148.97-.89.97-1.607.97h-.408l.286-1.813a.225.225,0,0,1,.223-.19h.187c.488,0,.949,0,1.188.278A.9.9,0,0,1,24.486,28.185Zm7.775-.031h-1.3a.226.226,0,0,0-.223.19l-.057.363-.091-.131a1.843,1.843,0,0,0-1.53-.543,2.979,2.979,0,0,0-2.893,2.605,2.445,2.445,0,0,0,.483,1.99,2.027,2.027,0,0,0,1.632.659,2.479,2.479,0,0,0,1.793-.742l-.058.36a.225.225,0,0,0,.222.261h1.167a.376.376,0,0,0,.371-.318l.7-4.434A.225.225,0,0,0,32.261,28.153Zm-1.806,2.521a1.444,1.444,0,0,1-1.462,1.237,1,1,0,0,1-1.073-1.259,1.45,1.45,0,0,1,1.452-1.247,1.092,1.092,0,0,1,.864.353A1.122,1.122,0,0,1,30.455,30.675Zm7.4-2.522h1.3a.226.226,0,0,1,.185.354l-4.33,6.25a.376.376,0,0,1-.309.162h-1.3a.226.226,0,0,1-.184-.356l1.348-1.9-1.434-4.208a.226.226,0,0,1,.214-.3H34.63a.377.377,0,0,1,.361.268l.761,2.542,1.8-2.645A.377.377,0,0,1,37.858,28.153Z" transform="translate(-20 -4.629)" fill="#253b80" fill-rule="evenodd"/>
      <path id="Path_229" data-name="Path 229" d="M50.715,32.905l1.11-7.064a.225.225,0,0,1,.222-.191H53.3a.225.225,0,0,1,.222.261l-1.1,6.937a.375.375,0,0,1-.371.318H50.937A.225.225,0,0,1,50.715,32.905Zm-8.5-7.254H39.507a.376.376,0,0,0-.371.317l-1.094,6.937a.225.225,0,0,0,.222.26h1.388a.263.263,0,0,0,.26-.222l.31-1.967a.376.376,0,0,1,.371-.318h.856a2.779,2.779,0,0,0,3.08-2.571,2.084,2.084,0,0,0-.345-1.747A2.508,2.508,0,0,0,42.212,25.651Zm.312,2.533c-.148.971-.889.971-1.607.971H40.51l.287-1.813a.225.225,0,0,1,.222-.19h.187c.488,0,.95,0,1.187.278A.9.9,0,0,1,42.525,28.184Zm7.774-.031H49a.224.224,0,0,0-.223.19l-.057.362-.091-.131a1.843,1.843,0,0,0-1.53-.543,2.979,2.979,0,0,0-2.892,2.605,2.445,2.445,0,0,0,.482,1.99,2.028,2.028,0,0,0,1.632.659,2.479,2.479,0,0,0,1.793-.742l-.058.36a.225.225,0,0,0,.223.261H49.45a.376.376,0,0,0,.371-.318l.7-4.434A.226.226,0,0,0,50.3,28.153Zm-1.806,2.521a1.443,1.443,0,0,1-1.461,1.237,1,1,0,0,1-1.073-1.259,1.451,1.451,0,0,1,1.452-1.247,1.093,1.093,0,0,1,.864.353A1.117,1.117,0,0,1,48.493,30.675Z" transform="translate(-18.742 -4.629)" fill="#179bd7" fill-rule="evenodd"/>
      <path id="Path_230" data-name="Path 230" d="M33.518,24.5l.333-2.113-.741-.017H29.572L32.031,6.779a.206.206,0,0,1,.069-.122.2.2,0,0,1,.131-.048H38.2c1.98,0,3.347.412,4.06,1.225a2.8,2.8,0,0,1,.651,1.219,4.4,4.4,0,0,1,0,1.681l-.008.049v.43l.335.19a2.348,2.348,0,0,1,.677.516,2.4,2.4,0,0,1,.55,1.232,5.226,5.226,0,0,1-.078,1.788,6.311,6.311,0,0,1-.733,2.024,4.166,4.166,0,0,1-1.161,1.272,4.71,4.71,0,0,1-1.563.705,7.808,7.808,0,0,1-1.954.226h-.464a1.4,1.4,0,0,0-1.381,1.178l-.035.19-.588,3.723-.027.137a.118.118,0,0,1-.037.08.1.1,0,0,1-.061.022Z" transform="translate(-19.332 -5.958)" fill="#253b80"/>
      <path id="Path_231" data-name="Path 231" d="M43.342,10.558q-.027.171-.061.35c-.787,4.039-3.478,5.434-6.915,5.434h-1.75a.85.85,0,0,0-.84.72l-.9,5.683-.254,1.611a.448.448,0,0,0,.442.518h3.1a.747.747,0,0,0,.737-.63l.031-.158.584-3.709.038-.2a.746.746,0,0,1,.737-.631h.464c3.007,0,5.362-1.221,6.05-4.754a4.049,4.049,0,0,0-.622-3.575A2.966,2.966,0,0,0,43.342,10.558Z" transform="translate(-19.12 -5.682)" fill="#179bd7"/>
      <path id="Path_232" data-name="Path 232" d="M42.443,10.27q-.181-.052-.371-.1t-.394-.074a9.725,9.725,0,0,0-1.543-.113H35.46a.745.745,0,0,0-.737.631l-.995,6.3L33.7,17.1a.85.85,0,0,1,.84-.72h1.75c3.437,0,6.129-1.4,6.915-5.434.024-.119.043-.236.061-.35a4.213,4.213,0,0,0-.647-.273C42.562,10.306,42.5,10.287,42.443,10.27Z" transform="translate(-19.044 -5.722)" fill="#222d65"/>
      <path id="Path_233" data-name="Path 233" d="M35.055,10.9a.746.746,0,0,1,.737-.63h4.676a9.719,9.719,0,0,1,1.543.113q.2.033.394.074t.372.1l.176.055a4.244,4.244,0,0,1,.647.273,3.813,3.813,0,0,0-.809-3.429C41.9,6.434,40.295,6,38.24,6H32.275a.853.853,0,0,0-.843.721L28.948,22.469a.512.512,0,0,0,.505.593h3.683l.925-5.867Z" transform="translate(-19.376 -6)" fill="#253b80"/>
    </g>
  </g>
</svg>
