<svg xmlns="http://www.w3.org/2000/svg" width="76.988" height="42.755" viewBox="0 0 76.988 42.755">
  <g id="Visa" transform="translate(0.25 0.25)" opacity="0.9">
    <rect id="Rectangle_290" data-name="Rectangle 290" width="76.488" height="42.255" rx="2.75" transform="translate(0 0)" fill="#fff" stroke="#f1f1f1" stroke-width="0.5"/>
    <g id="g4158" transform="translate(10.163 11.232)">
      <path id="polygon9" d="M437.951,127.914h-4.444l2.78-17.187h4.444Z" transform="translate(-414.178 -110.415)" fill="#00579f"/>
      <path id="path11" d="M578.51,105.779a10.953,10.953,0,0,0-3.986-.732c-4.389,0-7.479,2.34-7.5,5.686-.036,2.469,2.213,3.84,3.895,4.663,1.719.841,2.3,1.39,2.3,2.14-.017,1.151-1.389,1.682-2.669,1.682a8.845,8.845,0,0,1-4.17-.914l-.585-.275-.622,3.858a13.525,13.525,0,0,0,4.956.915c4.663,0,7.7-2.3,7.735-5.87.018-1.957-1.17-3.456-3.73-4.681-1.554-.786-2.506-1.317-2.506-2.121.018-.731.805-1.481,2.56-1.481a7.551,7.551,0,0,1,3.311.658l.4.183.6-3.711Z" transform="translate(-538.626 -105.048)" fill="#00579f"/>
      <path id="path13" d="M797.4,121.825c.366-.987,1.774-4.809,1.774-4.809-.018.037.365-1.006.585-1.646l.311,1.481s.842,4.114,1.024,4.973Zm5.486-11.1h-3.438a2.193,2.193,0,0,0-2.323,1.426l-6.6,15.761h4.663l.933-2.578h5.706c.128.6.53,2.578.53,2.578h4.115l-3.585-17.187h0Z" transform="translate(-751.607 -110.415)" fill="#00579f"/>
      <path id="path15" d="M176.808,110.727l-4.352,11.72-.476-2.377a13.155,13.155,0,0,0-6.144-7.2l3.987,15.03h4.7l6.985-17.169h-4.7Z" transform="translate(-161.191 -110.415)" fill="#00579f"/>
      <path id="path17" d="M88.389,110.727h-7.15l-.073.347c5.578,1.426,9.272,4.864,10.789,9l-1.554-7.9a1.839,1.839,0,0,0-2.012-1.445Z" transform="translate(-81.166 -110.415)" fill="#faa61a"/>
    </g>
  </g>
</svg>
